<?xml version="1.0" standalone="no"?>
<!DOCTYPE svg PUBLIC "-//W3C//DTD SVG 20010904//EN"
 "http://www.w3.org/TR/2001/REC-SVG-20010904/DTD/svg10.dtd">
<svg version="1.0" xmlns="http://www.w3.org/2000/svg"
 width="512.000000pt" height="512.000000pt" viewBox="0 0 512.000000 512.000000"
 preserveAspectRatio="xMidYMid meet">
<metadata>
Created by potrace 1.11, written by Peter Selinger 2001-2013
</metadata>
<g transform="translate(0.000000,512.000000) scale(0.100000,-0.100000)"
fill="#000000" stroke="none">
<path d="M2295 4584 c-16 -2 -77 -9 -135 -15 -285 -30 -647 -124 -935 -243
-216 -90 -604 -310 -655 -371 -12 -15 -15 -59 -15 -234 0 -119 4 -264 8 -323
l8 -107 -56 -32 c-30 -17 -55 -33 -55 -35 0 -2 59 -4 131 -4 l131 0 -5 43
c-13 111 -29 509 -23 560 l8 58 86 57 c108 69 356 198 494 256 569 238 1214
313 1811 211 227 -39 516 -123 725 -211 138 -58 386 -187 494 -256 l86 -57 8
-58 c6 -51 -10 -449 -23 -560 l-5 -43 131 0 c72 0 131 2 131 4 0 3 -25 19 -55
36 l-55 32 7 111 c5 62 8 207 8 323 0 171 -3 214 -15 229 -34 41 -270 184
-455 275 -357 176 -662 271 -1065 331 -104 16 -199 21 -410 24 -151 2 -288 1
-305 -1z"/>
<path d="M2270 4359 c-471 -44 -970 -208 -1382 -456 -99 -59 -108 -67 -114
-101 -7 -34 10 -409 23 -529 l6 -53 1747 0 1747 0 7 64 c12 115 26 359 26 454
l0 93 -77 50 c-113 73 -458 241 -603 293 -268 95 -571 163 -840 186 -135 12
-406 11 -540 -1z m40 -481 l155 -3 -122 -89 c-68 -48 -123 -93 -123 -100 0 -7
20 -72 45 -146 25 -73 43 -136 40 -138 -2 -2 -55 33 -117 78 -61 46 -119 85
-128 87 -8 2 -68 -35 -133 -83 -65 -47 -120 -84 -122 -82 -3 2 15 65 40 138
25 74 45 139 45 146 0 7 -55 52 -122 100 l-123 89 155 3 156 2 49 151 50 150
50 -150 49 -151 156 -2z m811 122 l41 -130 139 0 c76 0 139 -3 139 -7 -1 -5
-48 -42 -106 -83 -58 -41 -108 -78 -110 -81 -2 -4 14 -60 36 -125 22 -66 39
-125 38 -132 -2 -8 -43 16 -103 61 -55 40 -105 76 -112 80 -8 5 -56 -24 -124
-73 -61 -45 -113 -80 -115 -78 -2 3 16 63 40 135 l44 131 -109 78 c-60 44
-109 82 -109 87 0 4 62 7 138 7 l137 0 34 108 c40 127 49 152 55 152 3 0 24
-58 47 -130z m-1891 -200 l31 -99 111 -3 111 -3 -82 -59 c-44 -32 -84 -62 -87
-67 -3 -5 9 -52 26 -105 18 -52 30 -97 28 -99 -2 -3 -41 22 -86 55 -45 33 -84
60 -88 60 -4 0 -44 -27 -91 -60 -46 -33 -85 -60 -88 -60 -2 0 12 46 31 102 19
56 34 103 34 104 0 1 -39 30 -87 65 l-88 64 109 5 109 5 29 85 c36 109 36 110
42 110 3 0 19 -45 36 -100z m2711 -28 l26 -77 91 -3 c51 -1 92 -6 92 -10 0 -4
-32 -29 -70 -57 -39 -27 -70 -51 -70 -54 0 -3 12 -43 26 -89 14 -46 24 -85 22
-87 -2 -2 -36 21 -77 51 -45 32 -79 50 -85 45 -61 -46 -127 -91 -135 -91 -5 0
3 38 19 85 l29 86 -69 51 c-39 28 -70 54 -70 59 0 5 40 9 88 9 l88 0 28 86
c15 47 31 83 34 79 4 -3 19 -41 33 -83z"/>
<path d="M4668 3883 c6 -2 12 -22 12 -43 0 -21 5 -42 10 -45 6 -4 10 11 10 39
0 34 4 46 18 49 9 3 -1 5 -23 5 -22 0 -34 -2 -27 -5z"/>
<path d="M4740 3840 c0 -51 19 -72 21 -22 l1 27 10 -27 c11 -33 28 -37 28 -8
0 27 18 25 23 -2 2 -13 5 1 6 30 1 51 -14 71 -25 35 -15 -46 -17 -48 -27 -15
-16 51 -37 41 -37 -18z"/>
<path d="M433 3050 c13 -211 101 -497 248 -807 l58 -123 1814 0 1814 0 56 118
c148 312 245 628 250 823 l2 79 -2124 2 -2124 3 6 -95z m916 -76 c20 -25 21
-39 21 -223 -1 -241 -1 -241 -124 -261 l-79 -13 -24 27 c-22 26 -23 32 -23
228 0 200 0 201 26 235 25 32 26 33 104 33 73 0 80 -2 99 -26z m159 14 c5 -7
20 -68 32 -135 12 -68 24 -123 25 -123 2 0 15 51 29 113 36 153 38 157 80 157
19 0 37 -3 39 -7 3 -5 8 -102 12 -217 8 -227 9 -226 -47 -226 -32 0 -43 27
-36 85 2 19 0 35 -4 35 -4 0 -8 -6 -8 -13 0 -7 -7 -37 -16 -66 -14 -50 -16
-52 -47 -49 -30 3 -33 7 -48 63 l-16 60 -7 -65 c-8 -70 -15 -80 -59 -80 l-29
0 7 233 c5 152 12 235 19 239 18 12 63 9 74 -4z m487 2 c3 -5 3 -25 -1 -45 -6
-33 -8 -35 -48 -35 -72 0 -86 -8 -86 -46 l0 -34 50 0 50 0 0 -45 0 -45 -50 0
-50 0 0 -39 0 -39 65 6 65 5 0 -45 0 -46 -77 -6 c-43 -4 -93 -10 -110 -13
l-33 -5 0 214 c0 118 3 218 7 221 10 11 211 8 218 -3z m260 -15 c24 -23 25
-28 25 -179 l0 -154 -31 -26 c-28 -24 -38 -26 -120 -26 l-89 0 0 205 0 205 95
0 c88 0 98 -2 120 -25z m155 -26 c14 -26 29 -48 33 -50 4 -2 20 19 35 46 23
43 32 50 61 53 18 2 38 -1 43 -6 6 -6 -9 -47 -41 -111 -50 -99 -51 -102 -51
-191 l0 -91 -42 3 -43 3 -5 100 c-5 95 -7 105 -52 191 -26 51 -44 95 -40 98 3
4 22 6 42 4 30 -3 38 -9 60 -49z m427 29 c17 -16 23 -32 23 -65 l0 -43 -40 0
c-33 0 -40 3 -40 20 0 17 -7 20 -40 20 -39 0 -40 -1 -40 -35 l0 -35 64 0 c83
0 96 -17 96 -126 0 -106 -8 -114 -115 -114 -103 0 -135 19 -135 81 l0 39 45 0
c34 0 45 -4 45 -16 0 -12 9 -14 38 -12 30 2 38 7 40 27 5 31 -12 41 -72 41
-78 0 -96 23 -96 121 0 72 2 79 26 98 22 17 41 21 102 21 64 0 79 -3 99 -22z
m295 -5 c26 -25 28 -32 28 -107 0 -105 -17 -126 -102 -126 l-58 0 0 -75 0 -75
-34 0 c-19 0 -37 4 -40 8 -7 12 -19 368 -13 386 5 13 23 16 99 16 86 0 94 -2
120 -27z m290 0 l28 -27 0 -171 c0 -168 -1 -172 -24 -194 -22 -20 -29 -22
-102 -15 -65 6 -82 11 -101 32 -22 24 -23 31 -23 190 0 156 1 167 22 189 19
20 31 23 97 23 68 0 78 -3 103 -27z m287 1 c18 -23 21 -41 21 -126 0 -74 -4
-107 -16 -128 -16 -26 -15 -31 10 -106 14 -44 26 -82 26 -87 0 -12 -78 -8 -87
5 -4 7 -20 46 -34 87 -35 103 -49 103 -49 2 0 -88 -3 -92 -67 -75 -23 6 -23 7
-23 223 0 120 3 221 7 224 3 4 48 7 99 7 88 0 94 -1 113 -26z m309 -36 l3 -58
-41 0 -40 0 0 -198 0 -199 -37 6 -38 6 -3 198 -2 197 -40 0 -40 0 0 48 c0 27
3 52 7 56 4 3 57 5 117 4 l111 -3 3 -57z m-2964 14 c22 -33 26 -49 26 -110 l0
-72 -55 0 c-51 0 -55 2 -55 24 0 32 -22 48 -62 44 l-33 -3 0 -205 0 -205 45 0
c42 0 45 2 50 30 5 28 8 30 58 33 l52 3 0 -71 c0 -59 -4 -77 -26 -110 l-27
-40 -107 0 -108 0 -26 34 -26 35 0 291 0 291 26 35 26 34 108 0 107 0 27 -38z
m3296 -34 c0 -66 -7 -91 -75 -272 -41 -109 -75 -202 -75 -207 0 -5 34 -9 75
-9 l76 0 -3 -77 -3 -78 -135 0 -135 0 -3 70 c-2 66 2 82 73 273 41 112 75 207
75 213 0 5 -34 9 -75 9 l-75 0 0 75 0 75 140 0 140 0 0 -72z m-2162 -470 c3
-14 -3 -18 -27 -18 -21 0 -31 -5 -31 -15 0 -8 9 -15 20 -15 13 0 20 -7 20 -20
0 -13 -7 -20 -20 -20 -11 0 -20 -7 -20 -15 0 -10 10 -15 31 -15 24 0 30 -4 27
-17 -2 -14 -15 -19 -51 -21 l-47 -3 0 84 c0 46 3 87 7 91 4 4 25 6 48 4 29 -2
41 -8 43 -20z m123 12 c26 -14 25 -50 -1 -50 -11 0 -20 5 -20 10 0 6 -7 10
-15 10 -8 0 -15 -7 -15 -15 0 -9 9 -15 23 -15 31 0 47 -18 47 -55 0 -39 -16
-55 -55 -55 -35 0 -55 15 -55 42 0 19 25 25 35 8 9 -15 35 -12 35 4 0 9 -12
16 -32 18 -30 3 -33 6 -36 41 -2 21 2 45 9 53 13 16 52 18 80 4z m410 0 c16
-9 19 -22 19 -84 0 -80 -4 -86 -59 -86 -31 0 -51 16 -51 42 0 11 7 18 20 18
11 0 20 -4 20 -10 0 -5 7 -10 15 -10 31 0 15 29 -17 32 -31 3 -33 6 -36 43 -5
56 37 82 89 55z m152 -5 c17 -17 20 -132 4 -152 -12 -16 -83 -17 -93 -1 -11
17 -4 140 8 155 14 18 63 16 81 -2z m-403 -10 c0 -8 -7 -15 -15 -15 -11 0 -15
-16 -17 -67 -2 -55 -6 -68 -20 -71 -16 -3 -18 5 -18 63 0 58 -3 68 -20 72 -11
3 -20 12 -20 19 0 10 15 14 55 14 42 0 55 -3 55 -15z m120 -71 c0 -76 -2 -85
-17 -82 -15 3 -19 17 -24 78 -6 86 -5 90 22 90 17 0 19 -8 19 -86z m372 44 c2
-24 8 -43 13 -43 6 0 11 19 13 43 2 33 7 42 21 42 15 0 19 -10 23 -57 3 -32 2
-69 -2 -83 -8 -30 -40 -40 -40 -13 0 13 -11 22 -32 28 -32 10 -33 12 -36 68
-3 51 -1 57 17 57 16 0 20 -8 23 -42z m-1072 -68 l0 -60 -335 0 c-326 0 -386
6 -297 29 118 31 454 81 605 89 27 2 27 1 27 -58z m1610 34 c63 -8 165 -23
225 -35 279 -51 255 -60 -162 -57 l-348 3 -3 59 -3 59 88 -7 c48 -4 140 -14
203 -22z m-995 -69 c0 -11 -8 -21 -17 -23 -14 -3 -18 3 -18 23 0 20 4 26 18
23 9 -2 17 -12 17 -23z"/>
<path d="M1217 2884 c-4 -4 -7 -70 -7 -146 l0 -139 38 3 37 3 0 140 0 140 -30
3 c-17 2 -34 0 -38 -4z"/>
<path d="M2127 2904 c-4 -4 -7 -56 -7 -116 l0 -108 35 0 36 0 -3 113 c-3 112
-3 112 -28 115 -14 2 -29 0 -33 -4z"/>
<path d="M3000 2871 c0 -40 1 -41 36 -41 35 0 35 1 32 38 -3 34 -6 37 -35 40
-32 3 -33 2 -33 -37z"/>
<path d="M3284 2887 c-2 -7 -3 -60 -2 -118 l3 -104 38 -3 37 -3 0 120 0 121
-35 0 c-20 0 -38 -6 -41 -13z"/>
<path d="M3580 2849 l0 -50 33 3 c28 3 32 7 35 36 4 40 -12 62 -44 62 -22 0
-24 -4 -24 -51z"/>
<path d="M2677 2423 c-12 -11 -8 -23 8 -23 8 0 15 7 15 15 0 16 -12 20 -23 8z"/>
<path d="M2815 2420 c-3 -6 1 -13 10 -16 19 -8 30 0 20 15 -8 14 -22 14 -30 1z"/>
<path d="M2815 2351 c-7 -12 12 -24 25 -16 11 7 4 25 -10 25 -5 0 -11 -4 -15
-9z"/>
<path d="M1210 2044 c0 -26 122 -228 200 -332 l95 -127 3 220 c1 121 0 225 -2
232 -4 10 -42 13 -151 13 -80 0 -145 -3 -145 -6z"/>
<path d="M1780 1673 l0 -378 53 -46 c68 -60 266 -219 272 -219 3 0 5 230 5
510 l0 510 -165 0 -165 0 0 -377z"/>
<path d="M2387 2043 c-4 -3 -7 -190 -7 -415 0 -382 1 -408 18 -408 9 0 85 13
167 28 l150 29 3 386 2 387 -163 0 c-90 0 -167 -3 -170 -7z"/>
<path d="M2990 1534 l0 -515 33 23 c44 31 180 141 244 197 l53 46 0 383 0 382
-165 0 -165 0 0 -516z"/>
<path d="M3594 2037 c-2 -7 -3 -111 -2 -232 l3 -220 95 127 c78 104 200 306
200 332 0 3 -65 6 -145 6 -109 0 -147 -3 -151 -13z"/>
<path d="M795 2027 c11 -7 65 -39 121 -70 99 -55 102 -58 153 -141 311 -508
849 -996 1374 -1246 l107 -52 107 52 c525 250 1063 739 1374 1246 l52 85 119
67 120 67 -153 3 c-84 1 -158 1 -164 -1 -5 -3 -38 -51 -72 -108 -183 -306
-456 -617 -749 -853 -147 -119 -380 -272 -519 -343 l-115 -58 -115 58 c-63 32
-181 102 -262 157 -417 277 -756 627 -1004 1035 l-67 110 -163 3 c-140 2 -161
0 -144 -11z"/>
<path d="M2747 1250 c-48 -10 -89 -19 -91 -21 -2 -2 -6 -70 -10 -151 l-7 -148
80 0 c75 0 81 1 85 23 9 40 46 283 46 300 0 9 -3 16 -7 16 -5 -1 -48 -9 -96
-19z m33 -115 c0 -3 -16 -37 -35 -75 l-35 -69 26 -3 c39 -5 29 -23 -16 -26
-50 -4 -52 10 -10 85 36 63 36 63 10 63 -20 0 -26 11 -13 23 8 8 73 9 73 2z"/>
<path d="M2538 1211 c-49 -10 -90 -20 -93 -23 -3 -3 0 -62 6 -131 l12 -127 79
0 c54 0 80 4 82 13 8 25 16 287 8 286 -4 -1 -46 -9 -94 -18z m50 -63 c4 -34
-23 -39 -31 -7 -3 12 -12 19 -19 17 -25 -9 -19 -39 16 -78 22 -25 36 -50 36
-67 0 -30 -25 -63 -48 -63 -24 0 -52 31 -52 57 0 30 28 31 32 1 2 -13 10 -23
18 -23 28 0 22 36 -14 75 -58 64 -46 124 24 118 30 -3 35 -7 38 -30z"/>
<path d="M2328 1170 c-49 -9 -91 -19 -94 -23 -3 -3 7 -52 23 -109 l28 -103 84
-3 83 -3 -5 33 c-3 18 -9 75 -13 126 -4 51 -9 94 -13 96 -3 2 -45 -4 -93 -14z
m38 -28 c6 -4 14 -17 18 -29 9 -29 -14 -31 -32 -3 -13 22 -42 17 -42 -7 0 -8
7 -39 16 -70 12 -40 20 -53 32 -51 10 2 17 12 17 22 0 11 6 21 13 24 10 3 12
-6 10 -34 -3 -36 -6 -39 -32 -39 -38 0 -63 34 -78 108 -12 54 -11 60 7 73 20
15 53 18 71 6z"/>
<path d="M2380 876 c0 -20 15 -32 85 -71 l85 -46 85 46 c70 39 85 51 85 71 l0
24 -170 0 -170 0 0 -24z"/>
</g>
</svg>
