<?xml version="1.0" standalone="no"?>
<!DOCTYPE svg PUBLIC "-//W3C//DTD SVG 20010904//EN"
 "//www.w3.org/TR/2001/REC-SVG-20010904/DTD/svg10.dtd">
<svg version="1.0" xmlns="//www.w3.org/2000/svg"
 width="16.000000pt" height="16.000000pt" viewBox="0 0 16.000000 16.000000"
 preserveAspectRatio="xMidYMid meet">
<metadata>
Created by potrace 1.11, written by Peter Selinger 2001-2013
</metadata>
<g transform="translate(0.000000,16.000000) scale(0.001600,-0.001600)"
fill="#000000" stroke="none">
<path d="M4806 9123 c-1 -1 -62 -5 -136 -8 -208 -10 -366 -22 -411 -30 -10 -2
-49 -7 -86 -10 -37 -4 -75 -9 -83 -10 -8 -2 -51 -8 -95 -15 -127 -18 -133 -19
-275 -46 -74 -14 -172 -34 -217 -45 -46 -10 -122 -28 -170 -40 -202 -47 -522
-147 -778 -244 -463 -173 -982 -438 -1339 -682 -60 -41 -115 -80 -122 -87 -7
-6 -31 -24 -54 -41 -59 -42 -99 -125 -107 -218 -13 -174 -6 -749 13 -1007 4
-52 7 -102 8 -112 1 -10 -50 -52 -139 -115 l-139 -98 1 -110 c2 -159 12 -300
28 -385 3 -14 8 -47 11 -75 4 -27 8 -53 10 -56 2 -4 6 -24 10 -45 9 -62 79
-329 119 -454 115 -366 272 -753 465 -1146 l89 -181 218 -124 c120 -68 224
-126 231 -129 6 -3 61 -82 121 -177 112 -177 235 -353 355 -508 69 -89 84
-108 161 -201 95 -115 281 -318 396 -434 109 -109 169 -166 319 -305 82 -75
316 -265 455 -370 328 -246 665 -456 995 -620 268 -134 325 -143 466 -82 83
36 365 178 444 223 281 162 670 425 855 576 11 9 63 52 115 94 336 274 700
640 971 974 24 30 46 57 49 60 15 14 147 189 219 290 96 135 88 123 153 225
87 135 115 179 133 211 14 25 65 58 219 145 292 164 263 140 328 270 350 703
573 1322 652 1814 5 31 10 67 22 169 8 77 12 383 5 394 -3 5 -68 41 -143 81
-76 40 -138 78 -139 84 -1 13 2 62 6 117 16 183 24 676 15 955 -4 109 -7 125
-34 178 -25 48 -46 70 -120 126 -138 103 -395 271 -417 271 -5 0 -9 5 -9 12 0
6 -3 8 -7 5 -3 -4 -13 -1 -22 7 -84 71 -703 366 -1005 478 -256 95 -651 219
-808 252 -12 3 -41 10 -63 16 -39 10 -115 27 -165 36 -14 3 -68 13 -120 24
-99 20 -242 44 -320 55 -25 3 -56 8 -70 10 -14 2 -54 7 -90 11 -36 3 -72 8
-81 9 -9 2 -56 6 -105 10 -49 3 -100 8 -114 10 -67 10 -666 26 -674 18z"/>
<path d="M9128 7602 c-33 -4 -38 -30 -5 -28 20 1 22 -3 24 -64 1 -36 2 -77 2
-92 1 -21 5 -25 22 -21 18 5 20 13 19 62 -3 115 -2 121 23 118 13 -1 22 3 22
12 0 14 -47 20 -107 13z"/>
<path d="M9268 7597 c-9 -9 -13 -41 -12 -103 1 -83 2 -89 22 -92 21 -3 22 1
23 60 l1 63 16 -62 c12 -47 20 -63 33 -63 13 0 21 14 30 55 7 30 15 55 18 55
3 0 6 -24 5 -52 -1 -53 11 -75 31 -58 8 6 12 126 6 195 -1 6 -12 10 -26 10
-21 0 -27 -7 -36 -40 -15 -56 -20 -78 -21 -92 -2 -28 -16 1 -27 57 -13 65 -38
92 -63 67z"/>
</g>
</svg>
